<svg width="10" height="10" viewBox="0 0 10 10" fill="none" xmlns="http://www.w3.org/2000/svg">
    <path d="M9.19997 0.8068C9.1383 0.745003 9.06504 0.695975 8.9844 0.662523C8.90376 0.629071 8.81731 0.611852 8.73 0.611852C8.6427 0.611852 8.55625 0.629071 8.47561 0.662523C8.39496 0.695975 8.32171 0.745003 8.26004 0.8068L5.00029 4.05988L1.74055 0.800134C1.67883 0.738417 1.60556 0.689461 1.52493 0.65606C1.44429 0.62266 1.35787 0.605469 1.27059 0.605469C1.18331 0.605469 1.09688 0.62266 1.01624 0.65606C0.935607 0.689461 0.862339 0.738417 0.800622 0.800134C0.738906 0.86185 0.689949 0.935118 0.656549 1.01575C0.623148 1.09639 0.605957 1.18282 0.605957 1.2701C0.605957 1.35738 0.623148 1.4438 0.656549 1.52444C0.689949 1.60508 0.738906 1.67834 0.800622 1.74006L4.06037 4.99981L0.800622 8.25955C0.738906 8.32127 0.689949 8.39454 0.656549 8.47517C0.623148 8.55581 0.605957 8.64223 0.605957 8.72952C0.605957 8.8168 0.623148 8.90322 0.656549 8.98386C0.689949 9.06449 0.738906 9.13776 0.800622 9.19948C0.862339 9.2612 0.935607 9.31015 1.01624 9.34355C1.09688 9.37695 1.18331 9.39414 1.27059 9.39414C1.35787 9.39414 1.44429 9.37695 1.52493 9.34355C1.60556 9.31015 1.67883 9.2612 1.74055 9.19948L5.00029 5.93973L8.26004 9.19948C8.32176 9.2612 8.39503 9.31015 8.47566 9.34355C8.5563 9.37695 8.64272 9.39414 8.73 9.39414C8.81728 9.39414 8.90371 9.37695 8.98435 9.34355C9.06498 9.31015 9.13825 9.2612 9.19997 9.19948C9.26168 9.13776 9.31064 9.06449 9.34404 8.98386C9.37744 8.90322 9.39463 8.8168 9.39463 8.72952C9.39463 8.64223 9.37744 8.55581 9.34404 8.47517C9.31064 8.39454 9.26168 8.32127 9.19997 8.25955L5.94022 4.99981L9.19997 1.74006C9.45328 1.48675 9.45328 1.06011 9.19997 0.8068Z" fill="#9D9FA6"/>
</svg>
